<?xml version="1.0" encoding="UTF-8" standalone="no"?>
<!-- Created with Inkscape (http://www.inkscape.org/) -->

<svg
   xmlns:dc="http://purl.org/dc/elements/1.1/"
   xmlns:cc="http://creativecommons.org/ns#"
   xmlns:rdf="http://www.w3.org/1999/02/22-rdf-syntax-ns#"
   xmlns:svg="http://www.w3.org/2000/svg"
   xmlns="http://www.w3.org/2000/svg"
   xmlns:sodipodi="http://sodipodi.sourceforge.net/DTD/sodipodi-0.dtd"
   xmlns:inkscape="http://www.inkscape.org/namespaces/inkscape"
   width="110.86571mm"
   height="9.5640192mm"
   viewBox="0 0 110.86571 9.5640192"
   version="1.1"
   id="svg8"
   inkscape:version="0.92.4 (5da689c313, 2019-01-14)"
   sodipodi:docname="logo.svg">
  <defs
     id="defs2" />
  <sodipodi:namedview
     id="base"
     pagecolor="#ffffff"
     bordercolor="#666666"
     borderopacity="1.0"
     inkscape:pageopacity="0.0"
     inkscape:pageshadow="2"
     inkscape:zoom="0.70000001"
     inkscape:cx="246.18182"
     inkscape:cy="-104.55251"
     inkscape:document-units="mm"
     inkscape:current-layer="text852"
     showgrid="false"
     inkscape:window-width="1920"
     inkscape:window-height="1001"
     inkscape:window-x="-9"
     inkscape:window-y="-9"
     inkscape:window-maximized="1" />
  <metadata
     id="metadata5">
    <rdf:RDF>
      <cc:Work
         rdf:about="">
        <dc:format>image/svg+xml</dc:format>
        <dc:type
           rdf:resource="http://purl.org/dc/dcmitype/StillImage" />
        <dc:title />
      </cc:Work>
    </rdf:RDF>
  </metadata>
  <g
     inkscape:label="Ebene 1"
     inkscape:groupmode="layer"
     id="layer1"
     transform="translate(-21.261599,-51.237322)">
    <g
       aria-label="SELIM SEYHANOGLU"
       style="font-style:normal;font-variant:normal;font-weight:normal;font-stretch:normal;font-size:10.58333302px;line-height:1.25;font-family:ms;-inkscape-font-specification:ms;letter-spacing:0px;word-spacing:0px;fill:#000000;fill-opacity:1;stroke:none;stroke-width:0.26458332"
       id="text852"
       transform="translate(-0.37224417,0.10857825)">
      <path
         d="m 24.495385,60.69231 c 2.28421,0 3.338462,-1.418218 3.338462,-2.685831 0,-1.518623 -1.418218,-2.183805 -2.585424,-2.736033 -1.280163,-0.61498 -2.221459,-1.0166 -2.221459,-2.070852 0,-0.903644 0.636112,-1.245687 1.803319,-1.245687 0.665182,0 1.227512,0.286951 1.37812,0.437557 l 1.048113,-0.823448 v 0 0 c -0.363968,-0.05019 -1.242511,-0.439272 -2.45992,-0.439272 -1.895142,0 -3.062348,1.029151 -3.062348,2.409717 0,1.65668 1.493522,2.372064 2.510122,2.823889 1.267612,0.552225 2.208907,0.991497 2.208907,2.033198 0,0.978947 -0.652632,1.606479 -1.945344,1.606479 -0.828341,0 -1.493522,-0.263562 -1.757086,-0.514576 l -1.016596,-1.63158 v 0 l -0.100408,2.271661 c 0.401621,0.02509 1.405667,0.564778 2.861538,0.564778 z"
         style="font-style:normal;font-variant:normal;font-weight:normal;font-stretch:normal;font-family:Merriweather;-inkscape-font-specification:Merriweather;fill:#000000;fill-opacity:1;stroke-width:0.31376526"
         id="path854"
         inkscape:connector-curvature="0"
         sodipodi:nodetypes="sscssccccsscssccccss" />
      <path
         d="m 28.626782,59.951477 -0.878416,0.105833 v 0.518583 h 5.873749 l 0.306917,-1.8415 -0.624417,-0.1905 -0.560916,1.3335 -2.9845,0.105834 v -3.153833 l 1.767417,0.03175 0.148166,0.910166 h 0.582083 v -2.434166 h -0.582083 l -0.148166,0.878416 -1.767417,0.03175 v -2.9845 l 2.624666,0.0635 0.306917,1.026584 h 0.60325 l -0.148167,-1.640417 h -5.386916 v 0.529167 l 0.867833,0.127 z"
         style="font-style:normal;font-variant:normal;font-weight:normal;font-stretch:normal;font-family:Merriweather;-inkscape-font-specification:Merriweather;fill:#000000;fill-opacity:1;stroke-width:0.26458332"
         id="path856"
         inkscape:connector-curvature="0" />
      <path
         d="m 35.531249,59.951477 -0.878416,0.105833 v 0.518583 h 5.640916 l 0.370417,-2.402416 -0.645584,-0.09525 -0.624416,1.778 -2.7305,0.09525 v -6.582833 l 1.04775,-0.127 v -0.529167 h -3.037417 v 0.529167 l 0.85725,0.127 z"
         style="font-style:normal;font-variant:normal;font-weight:normal;font-stretch:normal;font-family:Merriweather;-inkscape-font-specification:Merriweather;fill:#000000;fill-opacity:1;stroke-width:0.26458332"
         id="path858"
         inkscape:connector-curvature="0" />
      <path
         d="m 42.418518,59.951477 -0.973667,0.105833 v 0.518583 h 3.100917 v -0.508 l -0.98425,-0.116416 v -6.582833 l 0.98425,-0.127 v -0.529167 h -3.1115 v 0.529167 l 0.98425,0.127 z"
         style="font-style:normal;font-variant:normal;font-weight:normal;font-stretch:normal;font-family:Merriweather;-inkscape-font-specification:Merriweather;fill:#000000;fill-opacity:1;stroke-width:0.26458332"
         id="path860"
         inkscape:connector-curvature="0" />
      <path
         d="m 46.08399,59.951477 -0.899583,0.105833 v 0.518583 h 2.76225 V 60.05731 l -1.04775,-0.105833 0.423333,-4.751917 0.1905,-2.053166 0.624417,2.00025 1.7145,5.069416 h 0.687916 l 1.767417,-5.535083 0.4445,-1.524 0.22225,2.042583 0.47625,4.751917 -0.963083,0.105833 v 0.518583 h 3.048 V 60.05731 l -0.92075,-0.116417 -0.846667,-6.572249 1.164167,-0.127 V 52.712477 H 52.14824 l -1.481667,4.7625 -0.3175,1.344083 -0.34925,-1.344083 -1.49225,-4.7625 H 45.70299 v 0.529167 l 1.153583,0.127 z"
         style="font-style:normal;font-variant:normal;font-weight:normal;font-stretch:normal;font-family:Merriweather;-inkscape-font-specification:Merriweather;fill:#000000;fill-opacity:1;stroke-width:0.26458332"
         id="path862"
         inkscape:connector-curvature="0" />
      <path
         d="m 61.527423,60.69231 c 2.210524,0 3.230766,-1.372469 3.230766,-2.599188 0,-1.469635 -1.372468,-2.113359 -2.502022,-2.647772 -1.238866,-0.595141 -2.149796,-0.983805 -2.149796,-2.004048 0,-0.874493 0.570849,-1.159856 1.700403,-1.159856 0.643725,0 1.379272,0.38332 1.525021,0.529069 l 0.867686,-0.948159 v 0 0 c -0.352227,-0.04858 -1.202428,-0.425101 -2.380565,-0.425101 -1.834007,0 -2.963561,0.995952 -2.963561,2.331982 0,1.603238 1.445343,2.295546 2.429148,2.732792 1.226721,0.534413 2.137651,0.959513 2.137651,1.96761 0,0.947368 -0.631579,1.554656 -1.88259,1.554656 -0.801619,0 -1.445344,-0.255061 -1.700404,-0.497976 l -0.983805,-1.578946 v 0 l -0.09717,2.198379 c 0.388663,0.02429 1.360323,0.546558 2.769229,0.546558 z"
         style="font-style:normal;font-variant:normal;font-weight:normal;font-stretch:normal;font-family:Merriweather;-inkscape-font-specification:Merriweather;fill:#000000;fill-opacity:1;stroke-width:0.30364352"
         id="path864"
         inkscape:connector-curvature="0"
         sodipodi:nodetypes="sscssccccsscssccccss" />
      <path
         d="m 65.751131,59.951477 -0.878416,0.105833 v 0.518583 h 5.87375 l 0.306916,-1.8415 -0.624416,-0.1905 -0.560917,1.3335 -2.9845,0.105834 v -3.153833 l 1.767417,0.03175 0.148166,0.910166 h 0.582084 v -2.434166 h -0.582084 l -0.148166,0.878416 -1.767417,0.03175 v -2.9845 l 2.624667,0.0635 0.306916,1.026584 h 0.60325 l -0.148166,-1.640417 h -5.386917 v 0.529167 l 0.867833,0.127 z"
         style="font-style:normal;font-variant:normal;font-weight:normal;font-stretch:normal;font-family:Merriweather;-inkscape-font-specification:Merriweather;fill:#000000;fill-opacity:1;stroke-width:0.26458332"
         id="path866"
         inkscape:connector-curvature="0" />
      <path
         d="m 74.158432,59.951477 -1.153583,0.105833 v 0.518583 h 3.513666 V 60.05731 l -1.185333,-0.116417 v -2.434166 l 2.211917,-4.138083 0.687916,-0.127 v -0.529167 h -2.413 v 0.529167 l 0.867834,0.127 -1.407584,2.836333 -0.381,0.804333 -0.338666,-0.804333 -1.49225,-2.836333 0.836083,-0.127 v -0.529167 h -2.76225 v 0.529167 l 0.635,0.137583 2.38125,4.138083 z"
         style="font-style:normal;font-variant:normal;font-weight:normal;font-stretch:normal;font-family:Merriweather;-inkscape-font-specification:Merriweather;fill:#000000;fill-opacity:1;stroke-width:0.26458332"
         id="path868"
         inkscape:connector-curvature="0" />
      <path
         d="m 79.476888,59.951477 -0.85725,0.105833 v 0.518583 h 2.910416 V 60.05731 l -0.920749,-0.105833 v -3.07975 h 3.725333 v 3.07975 l -0.867834,0.105833 v 0.518583 h 2.846917 V 60.05731 l -0.836083,-0.105833 v -6.582833 l 0.836083,-0.127 v -0.529167 h -2.836333 v 0.529167 l 0.85725,0.127 v 2.846916 h -3.725333 v -2.846916 l 0.910166,-0.127 v -0.529167 h -2.878666 v 0.529167 l 0.836083,0.127 z"
         style="font-style:normal;font-variant:normal;font-weight:normal;font-stretch:normal;font-family:Merriweather;-inkscape-font-specification:Merriweather;fill:#000000;fill-opacity:1;stroke-width:0.26458332"
         id="path870"
         inkscape:connector-curvature="0" />
      <path
         d="m 87.373375,59.951477 -0.656167,0.105833 v 0.518583 h 2.50825 V 60.05731 l -0.910166,-0.105833 0.497416,-1.566334 h 3.090333 l 0.497417,1.566334 -0.878416,0.105833 v 0.518583 h 2.793999 V 60.05731 l -0.656166,-0.105833 -2.57175,-7.3025 h -1.164167 z m 4.328583,-2.19075 h -2.69875 l 1.068917,-3.39725 0.254,-0.9525 0.264583,0.931333 z"
         style="font-style:normal;font-variant:normal;font-weight:normal;font-stretch:normal;font-family:Merriweather;-inkscape-font-specification:Merriweather;fill:#000000;fill-opacity:1;stroke-width:0.26458332"
         id="path872"
         inkscape:connector-curvature="0" />
      <path
         d="m 95.548008,59.940893 -0.846667,0.116417 v 0.518583 h 2.57175 V 60.05731 L 96.267674,59.951477 V 53.89781 l 0.814917,1.397 3.598329,5.281083 h 0.83609 v -7.207249 l 0.84666,-0.127 v -0.529167 h -2.497662 v 0.529167 l 0.920752,0.127 v 5.630333 l -0.59267,-1.121834 -3.524249,-5.164666 h -1.9685 v 0.529167 l 0.846667,0.127 z"
         style="font-style:normal;font-variant:normal;font-weight:normal;font-stretch:normal;font-family:Merriweather;-inkscape-font-specification:Merriweather;fill:#000000;fill-opacity:1;stroke-width:0.26458332"
         id="path874"
         inkscape:connector-curvature="0" />
      <path
         d="m 106.38352,60.69231 c 2.02142,-0.03175 3.53483,-1.651 3.53483,-4.138083 0,-2.38125 -1.13241,-3.926417 -3.37608,-3.926417 -2.032,-0.01058 -3.556,1.576917 -3.556,4.064 0,2.391833 1.15358,4.03225 3.39725,4.0005 z m 0.0741,-7.514166 c 1.397,0 2.19075,1.27 2.19075,3.386666 0,2.360083 -0.889,3.566583 -2.21191,3.566583 -1.397,0 -2.19075,-1.344083 -2.19075,-3.439583 0,-2.370666 0.889,-3.513666 2.21191,-3.513666 z"
         style="font-style:normal;font-variant:normal;font-weight:normal;font-stretch:normal;font-family:Merriweather;-inkscape-font-specification:Merriweather;fill:#000000;fill-opacity:1;stroke-width:0.26458332"
         id="path876"
         inkscape:connector-curvature="0" />
      <path
         d="m 114.40205,60.69231 c 1.41817,0 2.32834,-0.518583 2.88925,-0.53975 v -2.846916 l 0.61384,-0.09525 v -0.624417 h -3.09034 v 0.624417 l 1.3335,0.105833 v 2.360083 c -0.32808,0.264583 -0.97366,0.4445 -1.66158,0.4445 -1.68275,0 -2.45533,-1.703917 -2.45533,-3.598333 0,-2.201333 1.10066,-3.33375 2.62466,-3.33375 0.889,0 1.31234,0.211667 1.44992,0.328083 l 0.254,1.27 h 0.75142 l 0.0952,-1.830916 c -0.35984,-0.08467 -1.36525,-0.328084 -2.46592,-0.328084 -2.30717,0 -4.01108,1.471084 -4.01108,4.1275 0,2.243667 1.3335,3.937 3.67241,3.937 z"
         style="font-style:normal;font-variant:normal;font-weight:normal;font-stretch:normal;font-family:Merriweather;-inkscape-font-specification:Merriweather;fill:#000000;fill-opacity:1;stroke-width:0.26458332"
         id="path878"
         inkscape:connector-curvature="0" />
      <path
         d="m 119.49511,59.951477 -0.87841,0.105833 v 0.518583 h 5.64091 l 0.37042,-2.402416 -0.64558,-0.09525 -0.62442,1.778 -2.7305,0.09525 v -6.582833 l 1.04775,-0.127 v -0.529167 h -3.03742 v 0.529167 l 0.85725,0.127 z"
         style="font-style:normal;font-variant:normal;font-weight:normal;font-stretch:normal;font-family:Merriweather;-inkscape-font-specification:Merriweather;fill:#000000;fill-opacity:1;stroke-width:0.26458332"
         id="path880"
         inkscape:connector-curvature="0" />
      <path
         d="m 128.85888,60.66056 c 1.651,0 2.86808,-0.98425 2.86808,-3.280833 v -4.011083 l 0.77259,-0.127 v -0.529167 h -2.46592 v 0.529167 l 0.889,0.137583 v 4.053416 c 0,1.693334 -0.62442,2.645834 -1.92617,2.645834 -1.2065,0 -1.98966,-0.6985 -1.98966,-2.709334 v -3.989916 l 0.89958,-0.137583 v -0.529167 h -2.82575 v 0.529167 l 0.75142,0.127 v 3.884083 c 0,2.328333 0.9525,3.407833 3.02683,3.407833 z"
         style="font-style:normal;font-variant:normal;font-weight:normal;font-stretch:normal;font-family:Merriweather;-inkscape-font-specification:Merriweather;fill:#000000;fill-opacity:1;stroke-width:0.26458332"
         id="path882"
         inkscape:connector-curvature="0" />
    </g>
  </g>
</svg>
